<svg aria-hidden="true" style="position: absolute; width: 0; height: 0; overflow: hidden;" version="1.1" xmlns="http://www.w3.org/2000/svg" xmlns:xlink="http://www.w3.org/1999/xlink">
    <defs>
        <symbol id="icon-Vector-2" viewBox="0 0 30 32">
            <path d="M29.773 22.098l-8.443-8.505 0.937-4.615c0.242 0.094 0.499 0.144 0.758 0.146h0.006c1.192 0.014 2.17-0.941 2.184-2.133s-0.941-2.17-2.133-2.184c-1.192-0.014-2.17 0.941-2.184 2.133-0.003 0.255 0.039 0.509 0.125 0.749l-4.96 0.605-8.091-8.133c-0.099-0.101-0.235-0.159-0.377-0.16-0.14 0.001-0.274 0.056-0.373 0.155l-1.513 1.504c-0.208 0.208-0.208 0.546 0 0.754l0.814 0.826c-3.153 5.798-2.129 12.978 2.519 17.663 0.043 0.041 0.092 0.074 0.146 0.098-0.034 0.18-0.051 0.364-0.052 0.547v6.187h-6.4c-1.472 0.002-2.665 1.195-2.667 2.667v1.067c0 0.295 0.239 0.533 0.533 0.533h24.533c0.295 0 0.533-0.239 0.533-0.533v-1.067c-0.002-1.472-1.195-2.665-2.667-2.667h-6.4v-2.742c1.003 0.21 2.024 0.317 3.049 0.32 2.458-0.003 4.877-0.615 7.040-1.783l0.818 0.823c0.099 0.101 0.235 0.159 0.377 0.16 0.14-0.001 0.274-0.056 0.373-0.155l1.513-1.504c0.208-0.208 0.208-0.546 0-0.754zM22.28 6.233c0.418-0.415 1.093-0.414 1.509 0.004s0.414 1.093-0.004 1.508c-0.2 0.199-0.47 0.31-0.752 0.31h-0.003c-0.589-0.003-1.064-0.483-1.061-1.072 0.002-0.282 0.115-0.552 0.314-0.751h-0.002zM21.024 9.738l-0.598 2.946-1.175-1.182 1.774-1.763zM20.419 8.836l-1.92 1.909-1.485-1.493 3.405-0.415zM23.004 28.8c0.884 0 1.6 0.716 1.6 1.6v0.533h-23.467v-0.533c0-0.884 0.716-1.6 1.6-1.6h20.267zM15.537 26.667v1.067h-5.333v-1.067h5.333zM10.204 25.6v-4.053c0-1.294 1.196-2.347 2.667-2.347s2.667 1.053 2.667 2.347v4.053h-5.333zM16.604 23.904v-2.357c0-1.882-1.675-3.413-3.733-3.413-1.331-0.020-2.576 0.657-3.281 1.786-4.058-4.274-4.971-10.645-2.279-15.887l18.602 18.708c-2.872 1.461-6.165 1.873-9.309 1.163zM27.893 23.22l-21.057-21.181 0.755-0.752 7.935 7.98c0.004 0 0.006 0.007 0.010 0.010l13.115 13.191-0.757 0.752z"></path>
        </symbol>
        <symbol id="icon-Vector-3" viewBox="0 0 31 32">
            <path d="M30.797 15.301c-0.002-8.452-6.855-15.303-15.308-15.301s-15.303 6.855-15.301 15.308c0.001 6.658 4.307 12.551 10.649 14.576 0.061 0.019 0.124 0.029 0.187 0.029 0.121-0 0.239-0.032 0.342-0.094 0.135-0.080 0.236-0.207 0.283-0.356l3.865-12.25c1.057-0.005 1.909-0.866 1.903-1.923s-0.866-1.909-1.923-1.903c-0.284 0.001-0.565 0.067-0.82 0.191l-5.106-5.107c-0.253-0.245-0.657-0.238-0.902 0.016-0.239 0.247-0.239 0.639 0 0.886l5.103 5.109c-0.392 0.799-0.168 1.764 0.536 2.309l-3.683 11.673c-7.278-2.681-11.004-10.754-8.323-18.032s10.754-11.004 18.032-8.323c7.278 2.681 11.004 10.754 8.323 18.032-1.31 3.556-4.001 6.431-7.462 7.973l-0.398-1.874c-0.073-0.345-0.411-0.565-0.756-0.492-0.109 0.023-0.209 0.074-0.293 0.148l-3.837 3.426c-0.263 0.234-0.287 0.637-0.052 0.9 0.076 0.085 0.174 0.149 0.283 0.184l4.899 1.564c0.335 0.108 0.694-0.077 0.802-0.412 0.034-0.106 0.040-0.219 0.017-0.328l-0.391-1.839c5.664-2.388 9.342-7.942 9.329-14.089zM15.492 14.664c0.352 0 0.638 0.286 0.638 0.638s-0.286 0.638-0.638 0.638c-0.352 0-0.638-0.285-0.638-0.638s0.285-0.638 0.638-0.638zM17.593 29.528l2.184-1.948 0.603 2.84-2.787-0.892z"></path>
        </symbol>
        <symbol id="icon-Vector-4" viewBox="0 0 41 32">
            <path d="M2.047 31.732h32.751c1.13 0 2.047-0.916 2.047-2.047v-2.729c0-1.13-0.917-2.047-2.047-2.047h-0.682v-17.015l3.876-3.671c0.9 0.443 1.988 0.174 2.577-0.638s0.506-1.931-0.195-2.648-1.818-0.824-2.643-0.253c-0.825 0.571-1.118 1.653-0.694 2.563l-2.92 2.768v-1.574c0-1.13-0.916-2.047-2.047-2.047h-27.292c-1.13 0-2.047 0.917-2.047 2.047v20.469h-0.682c-1.13 0-2.047 0.916-2.047 2.047v2.729c0 1.13 0.917 2.047 2.047 2.047zM38.892 1.711c0.377 0 0.682 0.305 0.682 0.682s-0.306 0.682-0.682 0.682c-0.377 0-0.682-0.305-0.682-0.682s0.305-0.682 0.682-0.682zM4.094 4.44c0-0.377 0.306-0.682 0.682-0.682h27.292c0.377 0 0.682 0.306 0.682 0.682v2.865l-1.365 1.297v-2.798c0-0.377-0.306-0.682-0.682-0.682h-24.563c-0.377 0-0.682 0.306-0.682 0.682v17.058c0 0.377 0.306 0.682 0.682 0.682h24.563c0.377 0 0.682-0.305 0.682-0.682v-12.383l1.365-1.293v15.723h-28.657v-20.469zM10.235 13.31c-0.923-0.003-1.734 0.612-1.979 1.502s0.135 1.834 0.928 2.305c0.794 0.471 1.805 0.353 2.468-0.289l2.372 1.19c0.276 0.138 0.61 0.073 0.815-0.157l5.042-5.672 4.956 3.714c0.266 0.199 0.637 0.178 0.878-0.050l4.307-4.080v10.408h-23.199v-15.693h23.199v3.405l-4.828 4.572-4.998-3.747c-0.284-0.213-0.683-0.173-0.919 0.092l-5.111 5.751-1.911-0.956c0.014-0.082 0.023-0.165 0.026-0.248 0-1.13-0.917-2.047-2.047-2.047zM10.917 15.357c0 0.377-0.305 0.682-0.682 0.682s-0.682-0.306-0.682-0.682c0-0.377 0.306-0.682 0.682-0.682s0.682 0.306 0.682 0.682zM15.011 26.274h6.823v0.682c0 0.377-0.306 0.682-0.682 0.682h-5.459c-0.377 0-0.682-0.306-0.682-0.682v-0.682zM1.365 26.956c0-0.377 0.306-0.682 0.682-0.682h11.599v0.682c0 1.13 0.916 2.047 2.047 2.047h5.459c1.13 0 2.047-0.916 2.047-2.047v-0.682h11.599c0.377 0 0.682 0.305 0.682 0.682v2.729c0 0.377-0.305 0.682-0.682 0.682h-32.751c-0.377 0-0.682-0.305-0.682-0.682v-2.729z"></path>
        </symbol>
        <symbol id="icon-Vector-5" viewBox="0 0 29 32">
            <path d="M27.75 13.653c-0.323-0.435-0.796-0.716-1.334-0.791-0.54-0.077-1.073 0.065-1.504 0.395l-1.406 1.078-2.131 1.591-1.525-0.607c2.719-1.22 4.619-3.939 4.619-7.096 0-4.293-3.506-7.785-7.816-7.785s-7.816 3.492-7.816 7.785c0 1.556 0.465 3.003 1.258 4.22l-3.103-0.027c-0.002 0-0.004 0-0.005 0-0.010 0-0.017 0.005-0.026 0.005-0.059 0.002-0.117 0.014-0.174 0.035-0.014 0.005-0.029 0.008-0.043 0.015-0.007 0.003-0.014 0.004-0.022 0.007l-3.63 1.792c-0.001 0-0.001 0-0.001 0.001l-2.126 1.022c-0.023 0.010-0.047 0.024-0.071 0.040-0.847 0.564-1.136 1.672-0.672 2.577 0.247 0.481 0.668 0.836 1.186 0.998 0.199 0.062 0.403 0.093 0.605 0.093 0.325 0 0.647-0.080 0.943-0.237l1.558-0.829 2.542-1.313 1.523-0.009-6.11 6.081c-0.001 0.001-0.001 0.001-0.002 0.001l-1.503 1.497c-0.355 0.353-0.55 0.822-0.55 1.322s0.195 0.97 0.55 1.323c0.365 0.363 0.844 0.545 1.324 0.545s0.959-0.182 1.325-0.545l1.476-1.47 1.955-1.459 1.011 1.007-1.978 1.97c-0.001 0.001-0.001 0.001-0.002 0.001l-1.503 1.497c-0.355 0.353-0.55 0.822-0.55 1.322s0.195 0.97 0.55 1.323c0.365 0.363 0.845 0.545 1.325 0.545s0.96-0.182 1.325-0.545l3.909-3.892c0.001-0.001 0.001-0.001 0.001-0.002l1.134-1.123-0.004-0.004c0.007-0.007 0.017-0.010 0.025-0.017l5.8-6.353 3.897 0.555c0.028 0.004 0.056 0.006 0.084 0.006 0.072 0 0.143-0.017 0.21-0.043 0.020-0.007 0.037-0.017 0.056-0.026 0.022-0.011 0.044-0.017 0.065-0.030l3.608-2.395c0.013-0.009 0.020-0.023 0.033-0.033 0.014-0.011 0.032-0.016 0.045-0.029l1.428-1.337c0.743-0.696 0.845-1.836 0.238-2.652zM2.392 17.707c-0.195 0.104-0.416 0.125-0.627 0.058-0.21-0.065-0.38-0.208-0.479-0.402-0.181-0.352-0.076-0.781 0.241-1.013l1.475-0.71 0.504 1.474-1.114 0.592zM6.319 15.655l-1.738 0.898-0.493-1.441 2.276-1.123-0.044 1.666zM23.272 8.221c0 1.031-0.246 2.004-0.672 2.874l-4.695-2.132c-0.049-0.644-0.383-1.207-0.885-1.558l1.644-5.457c2.67 0.849 4.609 3.34 4.609 6.274zM10.036 8.221c0-3.632 2.969-6.587 6.618-6.587 0.284 0 0.562 0.024 0.837 0.059l-1.608 5.338c-0.022-0.001-0.042-0.007-0.064-0.007-1.159 0-2.102 0.94-2.102 2.096s0.943 2.096 2.102 2.096c0.78 0 1.453-0.431 1.817-1.061l4.337 1.97c-1.207 1.624-3.138 2.683-5.318 2.683-3.649 0-6.618-2.955-6.618-6.587zM16.723 9.12c0 0.495-0.406 0.898-0.905 0.898s-0.905-0.403-0.905-0.898c0-0.495 0.406-0.898 0.905-0.898s0.905 0.403 0.905 0.898zM2.768 25.989c-0.265 0.263-0.695 0.262-0.959 0.001-0.128-0.128-0.198-0.296-0.198-0.475s0.070-0.347 0.198-0.473l1.080-1.076 0.956 0.952-1.077 1.072zM6.376 30.181c-0.265 0.263-0.695 0.264-0.96 0.001-0.128-0.128-0.198-0.296-0.198-0.475s0.070-0.347 0.198-0.473l1.081-1.077 0.956 0.952-1.077 1.072zM10.285 26.286c-0.001 0.001-0.001 0.001-0.002 0.001l-1.982 1.976-0.956-0.952 1.98-1.971c0 0 0 0 0-0.001s0.001-0.001 0.002-0.001c0.045-0.045 0.073-0.099 0.101-0.152 0.008-0.016 0.023-0.029 0.029-0.045 0.019-0.046 0.022-0.096 0.029-0.144 0.004-0.028 0.016-0.053 0.016-0.081 0-0.040-0.014-0.079-0.023-0.119-0.007-0.036-0.007-0.073-0.021-0.107-0.023-0.056-0.062-0.106-0.102-0.155-0.011-0.013-0.016-0.030-0.028-0.043 0 0 0 0-0.001 0s-0.001-0.002-0.001-0.002l-1.804-1.796c-0.019-0.019-0.044-0.027-0.065-0.043-0.032-0.025-0.062-0.047-0.098-0.065-0.034-0.017-0.069-0.027-0.105-0.037-0.038-0.011-0.075-0.019-0.116-0.022-0.037-0.002-0.071 0.001-0.107 0.005-0.040 0.005-0.078 0.010-0.117 0.023-0.038 0.012-0.071 0.031-0.106 0.050-0.022 0.013-0.047 0.017-0.068 0.032l-1.991 1.486-1.011-1.007 2.694-2.679 4.896 4.815-1.041 1.032zM17.942 18.407c-0.017-0.002-0.034 0.004-0.051 0.003-0.044-0.002-0.086 0.001-0.129 0.008-0.034 0.006-0.066 0.013-0.099 0.024-0.038 0.013-0.073 0.031-0.108 0.053-0.034 0.020-0.064 0.042-0.093 0.069-0.014 0.013-0.032 0.019-0.045 0.033l-5.275 5.778-4.86-4.779 3.181-3.164c0.234-0.234 0.235-0.613 0.002-0.847-0.118-0.118-0.273-0.176-0.428-0.175v-0.001l-2.491 0.015 0.031-1.805 3.485 0.030c1.42 1.453 3.401 2.359 5.593 2.359 0.491 0 0.97-0.051 1.437-0.138 0.045 0.036 0.089 0.073 0.146 0.095l2.706 1.078 0.171 0.852 0.2 0.994-3.371-0.48zM22.479 18.608l-0.352-1.749 1.624-1.213 1.063 1.411-2.335 1.551zM26.694 15.429l-0.941 0.882-1.046-1.388 0.934-0.716c0.174-0.134 0.394-0.189 0.61-0.161 0.217 0.031 0.408 0.144 0.539 0.319 0.243 0.328 0.202 0.784-0.096 1.064z"></path>
        </symbol>
        <symbol id="icon-Vector" viewBox="0 0 37 32">
            <path d="M36.571 4.66c-1.36 0.597-2.809 0.992-4.32 1.184 1.554-0.928 2.741-2.386 3.298-4.144-1.449 0.864-3.049 1.474-4.754 1.815-1.376-1.465-3.337-2.373-5.477-2.373-4.151 0-7.493 3.369-7.493 7.499 0 0.594 0.050 1.166 0.174 1.71-6.233-0.304-11.749-3.291-15.454-7.842-0.647 1.122-1.026 2.407-1.026 3.79 0 2.597 1.337 4.898 3.33 6.231-1.205-0.023-2.386-0.373-3.387-0.923 0 0.023 0 0.053 0 0.082 0 3.643 2.599 6.67 6.007 7.367-0.61 0.167-1.275 0.247-1.966 0.247-0.48 0-0.965-0.027-1.419-0.128 0.971 2.969 3.728 5.152 7.006 5.223-2.551 1.995-5.79 3.198-9.296 3.198-0.615 0-1.205-0.027-1.794-0.103 3.321 2.142 7.257 3.365 11.502 3.365 13.797 0 21.339-11.428 21.339-21.335 0-0.331-0.011-0.651-0.027-0.969 1.488-1.056 2.738-2.375 3.758-3.893z"></path>
        </symbol>
        <symbol id="icon-Vector-1" viewBox="0 0 18 32">
            <path d="M13.329 5.313h2.921v-5.088c-0.504-0.069-2.237-0.225-4.256-0.225-4.212 0-7.097 2.649-7.097 7.519v4.481h-4.648v5.688h4.648v14.312h5.699v-14.311h4.46l0.708-5.688h-5.169v-3.919c0.001-1.644 0.444-2.769 2.735-2.769z"></path>
        </symbol>
        <symbol id="icon-linkedin-1" viewBox="0 0 32 32">
            <path d="M31.992 32v-0.001h0.008v-11.736c0-5.741-1.236-10.164-7.948-10.164-3.227 0-5.392 1.771-6.276 3.449h-0.093v-2.913h-6.364v21.364h6.627v-10.579c0-2.785 0.528-5.479 3.977-5.479 3.399 0 3.449 3.179 3.449 5.657v10.401h6.62z"></path>
            <path d="M0.528 10.636h6.635v21.364h-6.635v-21.364z"></path>
            <path d="M3.843-0c-2.121 0-3.843 1.721-3.843 3.843s1.721 3.879 3.843 3.879c2.121 0 3.843-1.757 3.843-3.879-0.001-2.121-1.723-3.843-3.843-3.843v0z"></path>
        </symbol>
        <symbol id="icon-instagram-2" viewBox="0 0 32 32">
            <path d="M31.969 9.408c-0.075-1.7-0.35-2.869-0.744-3.882-0.406-1.075-1.031-2.038-1.85-2.838-0.8-0.813-1.769-1.444-2.832-1.844-1.019-0.394-2.182-0.669-3.882-0.744-1.713-0.081-2.257-0.1-6.601-0.1s-4.888 0.019-6.595 0.094c-1.7 0.075-2.869 0.35-3.882 0.744-1.075 0.406-2.038 1.031-2.838 1.85-0.813 0.8-1.444 1.769-1.844 2.832-0.394 1.019-0.669 2.182-0.744 3.882-0.081 1.713-0.1 2.257-0.1 6.601s0.019 4.888 0.094 6.595c0.075 1.7 0.35 2.869 0.744 3.882 0.406 1.075 1.038 2.038 1.85 2.838 0.8 0.813 1.769 1.444 2.832 1.844 1.019 0.394 2.182 0.669 3.882 0.744 1.706 0.075 2.25 0.094 6.595 0.094s4.888-0.019 6.595-0.094c1.7-0.075 2.869-0.35 3.882-0.744 2.151-0.831 3.851-2.532 4.682-4.682 0.394-1.019 0.669-2.182 0.744-3.882 0.075-1.707 0.094-2.25 0.094-6.595s-0.006-4.888-0.081-6.595zM29.087 22.473c-0.069 1.563-0.331 2.407-0.55 2.969-0.538 1.394-1.644 2.5-3.038 3.038-0.563 0.219-1.413 0.481-2.969 0.55-1.688 0.075-2.194 0.094-6.464 0.094s-4.782-0.019-6.464-0.094c-1.563-0.069-2.407-0.331-2.969-0.55-0.694-0.256-1.325-0.663-1.838-1.194-0.531-0.519-0.938-1.144-1.194-1.838-0.219-0.563-0.481-1.413-0.55-2.969-0.075-1.688-0.094-2.194-0.094-6.464s0.019-4.782 0.094-6.464c0.069-1.563 0.331-2.407 0.55-2.969 0.256-0.694 0.663-1.325 1.2-1.838 0.519-0.531 1.144-0.938 1.838-1.194 0.563-0.219 1.413-0.481 2.969-0.55 1.688-0.075 2.194-0.094 6.464-0.094 4.276 0 4.782 0.019 6.464 0.094 1.563 0.069 2.407 0.331 2.969 0.55 0.694 0.256 1.325 0.662 1.838 1.194 0.531 0.519 0.938 1.144 1.194 1.838 0.219 0.563 0.481 1.413 0.55 2.969 0.075 1.688 0.094 2.194 0.094 6.464s-0.019 4.77-0.094 6.458z"></path>
            <path d="M16.059 7.783c-4.538 0-8.22 3.682-8.22 8.22s3.682 8.22 8.22 8.22c4.538 0 8.22-3.682 8.22-8.22s-3.682-8.22-8.22-8.22zM16.059 21.335c-2.944 0-5.332-2.388-5.332-5.332s2.388-5.332 5.332-5.332c2.944 0 5.332 2.388 5.332 5.332s-2.388 5.332-5.332 5.332z"></path>
            <path d="M26.524 7.458c0 1.060-0.859 1.919-1.919 1.919s-1.919-0.859-1.919-1.919c0-1.060 0.859-1.919 1.919-1.919s1.919 0.859 1.919 1.919z"></path>
        </symbol>
        <symbol id="icon-close-black-18dp-2-1-1" viewBox="0 0 32 32">
            <path d="M32 3.223l-3.223-3.223-12.777 12.777-12.777-12.777-3.223 3.223 12.777 12.777-12.777 12.777 3.223 3.223 12.777-12.777 12.777 12.777 3.223-3.223-12.777-12.777 12.777-12.777z"></path>
        </symbol>
        <symbol id="icon-icon-send" viewBox="0 0 38 32">
<path fill="#fff" style="fill: var(--color1, #fff)" d="M38.4 0l-38.4 18 12.272 3.788 18.928-14.788-14.397 16.186 0.012 0.004-0.014-0.004v8.814l6.882-6.691 8.718 2.691 6-28z"></path>
</symbol>
<symbol id="icon-heroicons-solid_menu" viewBox="0 0 32 32">
<path d="M4.799 8.001c0-0.424 0.169-0.831 0.469-1.131s0.707-0.469 1.131-0.469h19.2c0.424 0 0.831 0.169 1.131 0.469s0.469 0.707 0.469 1.131-0.169 0.831-0.469 1.131c-0.3 0.3-0.707 0.469-1.131 0.469h-19.2c-0.424 0-0.831-0.169-1.131-0.469s-0.469-0.707-0.469-1.131z"></path>
<path d="M4.799 16.001c0-0.424 0.169-0.831 0.469-1.131s0.707-0.469 1.131-0.469h19.2c0.424 0 0.831 0.169 1.131 0.469s0.469 0.707 0.469 1.131c0 0.424-0.169 0.831-0.469 1.131s-0.707 0.469-1.131 0.469h-19.2c-0.424 0-0.831-0.169-1.131-0.469s-0.469-0.707-0.469-1.131z"></path>
<path d="M4.799 24.001c0-0.424 0.169-0.831 0.469-1.131s0.707-0.469 1.131-0.469h19.2c0.424 0 0.831 0.169 1.131 0.469s0.469 0.707 0.469 1.131c0 0.424-0.169 0.831-0.469 1.131s-0.707 0.469-1.131 0.469h-19.2c-0.424 0-0.831-0.169-1.131-0.469s-0.469-0.707-0.469-1.131z"></path>
</symbol>
        <svg version="1.1" xmlns="http://www.w3.org/2000/svg" xmlns:xlink="http://www.w3.org/1999/xlink" width="752" height="32" viewBox="0 0 752 32">
            <svg id="icon-person-black-18dp-1" viewBox="0 0 32 32" x="0" y="0">
                <path fill="#2E2F42" d="M16 16c2.947 0 5.333-2.387 5.333-5.333s-2.387-5.333-5.333-5.333c-2.947 0-5.333 2.387-5.333 5.333s2.387 5.333 5.333 5.333zM16 18.667c-3.56 0-10.667 1.787-10.667 5.333v1.333c0 0.733 0.6 1.333 1.333 1.333h18.667c0.733 0 1.333-0.6 1.333-1.333v-1.333c0-3.547-7.107-5.333-10.667-5.333z"></path>
            </svg>
            <symbol id="icon-phone-black-18dp-1" viewBox="0 0 24 32">
<path fill="#2E2F42" d="M19.635 18.487l-2.451-0.28c-0.589-0.067-1.167 0.135-1.582 0.55l-1.775 1.775c-2.731-1.389-4.969-3.618-6.359-6.359l1.785-1.785c0.415-0.415 0.618-0.994 0.55-1.582l-0.28-2.432c-0.116-0.975-0.936-1.708-1.92-1.708h-1.669c-1.090 0-1.997 0.907-1.93 1.997 0.511 8.24 7.102 14.821 15.332 15.332 1.090 0.068 1.997-0.839 1.997-1.93v-1.669c0.010-0.975-0.724-1.795-1.698-1.911z"></path>
</symbol>
            <symbol id="icon-email-black-18dp-1" viewBox="0 0 24 32">
<path fill="#2E2F42" d="M20 8h-16c-1.1 0-1.99 0.9-1.99 2l-0.010 12c0 1.1 0.9 2 2 2h16c1.1 0 2-0.9 2-2v-12c0-1.1-0.9-2-2-2zM19.6 12.25l-7.070 4.42c-0.32 0.2-0.74 0.2-1.060 0l-7.070-4.42c-0.25-0.16-0.4-0.43-0.4-0.72 0-0.67 0.73-1.070 1.3-0.72l6.7 4.19 6.7-4.19c0.57-0.35 1.3 0.050 1.3 0.72 0 0.29-0.15 0.56-0.4 0.72z"></path>
</symbol>
        </svg>
    </defs>
</svg>